# Blender 3.6.3
# www.blender.org
mtllib mushroom_smooth.mtl
o middle
v 0.000000 -1.000000 -1.000000
v -0.000000 1.000000 -1.000000
v 0.587785 -1.000000 -0.809017
v 0.586144 0.956102 -0.809017
v 0.951057 -1.000000 -0.309017
v 0.948401 0.928972 -0.309017
v 0.951057 -1.000000 0.309017
v 0.948401 0.928972 0.309017
v 0.587785 -1.000000 0.809017
v 0.586144 0.956102 0.809017
v 0.000000 -1.000000 1.000000
v 0.000000 1.000000 1.000000
v -0.587785 -1.000000 0.809017
v -0.586144 1.043898 0.809017
v -0.951057 -1.000000 0.309017
v -0.948401 1.071028 0.309017
v -0.951057 -1.000000 -0.309017
v -0.948401 1.071028 -0.309017
v -0.587785 -1.000000 -0.809017
v -0.586144 1.043898 -0.809017
v 0.000000 -1.476102 -0.726946
v 0.427288 -1.476102 -0.588112
v 0.691367 -1.476102 -0.224639
v 0.691367 -1.476102 0.224639
v 0.427288 -1.476102 0.588112
v 0.000000 -1.476102 0.726946
v -0.427288 -1.476102 0.588112
v -0.691367 -1.476102 0.224639
v -0.691367 -1.476102 -0.224639
v -0.427288 -1.476102 -0.588112
v -0.037940 1.934005 -0.990013
v 0.536379 1.933132 -0.792484
v 0.886159 1.923671 -0.288601
v 0.878313 1.909315 0.329217
v 0.515837 1.895550 0.824983
v -0.063331 1.887550 1.009286
v -0.638301 1.888320 0.811699
v -0.989135 1.897616 0.307722
v -0.981288 1.911971 -0.310096
v -0.617759 1.925903 -0.805768
v -0.045204 2.831761 -1.022825
v 0.520871 2.708798 -0.832464
v 0.870678 2.632802 -0.332852
v 0.870678 2.632802 0.285182
v 0.520871 2.708798 0.785570
v -0.045204 2.831761 0.977174
v -0.611375 2.954724 0.786806
v -0.961335 3.030720 0.287183
v -0.961335 3.030720 -0.330851
v -0.611375 2.954724 -0.831228
v -0.035276 3.946438 -1.152053
v 0.593019 3.776845 -0.941070
v 0.981178 3.672030 -0.388996
v 0.980940 3.672030 0.293296
v 0.592394 3.776845 0.845193
v -0.036050 3.946438 1.055889
v -0.664348 4.116032 0.844906
v -1.052510 4.220847 0.292831
v -1.052270 4.220847 -0.389460
v -0.663720 4.116032 -0.941357
v 0.032922 4.850247 -0.595012
v 0.339237 4.770340 -0.492154
v 0.528549 4.720954 -0.222867
v 0.528549 4.720954 0.109990
v 0.339237 4.770340 0.379276
v 0.032922 4.850247 0.482135
v -0.273392 4.930155 0.379276
v -0.462705 4.979541 0.109990
v -0.462705 4.979541 -0.222867
v -0.273392 4.930155 -0.492154
v -1.052510 4.220847 0.292831
v 0.293893 -1.000000 -0.904508
v 0.769421 -1.000000 -0.559017
v 0.951057 -1.000000 0.000000
v 0.769421 -1.000000 0.559017
v 0.293893 -1.000000 0.904508
v -0.293893 -1.000000 0.904508
v -0.769421 -1.000000 0.559017
v -0.951057 -1.000000 0.000000
v -0.769421 -1.000000 -0.559017
v -0.293893 -1.000000 -0.904508
v 0.213644 -1.476102 -0.657529
v 0.559327 -1.476102 -0.406375
v 0.691367 -1.476102 0.000000
v 0.559327 -1.476102 0.406375
v 0.213644 -1.476102 0.657529
v -0.213644 -1.476102 0.657529
v -0.559327 -1.476102 0.406375
v -0.691367 -1.476102 0.000000
v -0.559327 -1.476102 -0.406375
v -0.213644 -1.476102 -0.657529
v -0.821212 -1.238051 -0.266828
v -0.821212 -1.238051 0.266828
v -0.507537 -1.238051 0.698564
v 0.000000 -1.238051 0.863473
v 0.507537 -1.238051 0.698564
v 0.821212 -1.238051 0.266828
v 0.507537 -1.238051 -0.698564
v 0.000000 -1.238051 -0.863473
v 0.821212 -1.238051 -0.266828
v -0.507537 -1.238051 -0.698564
v -0.664374 -1.238051 -0.482696
v -0.253768 -1.238051 -0.781019
v 0.664374 -1.238051 -0.482696
v 0.821212 -1.238051 0.000000
v 0.253768 -1.238051 -0.781019
v 0.664374 -1.238051 0.482696
v 0.253768 -1.238051 0.781019
v -0.253768 -1.238051 0.781019
v -0.664374 -1.238051 0.482696
v -0.821212 -1.238051 0.000000
vn 0.3094 0.0001 -0.9509
vn 0.8094 0.0009 -0.5872
vn 1.0000 0.0014 -0.0000
vn 0.8094 0.0009 0.5872
vn 0.3094 0.0001 0.9509
vn -0.3094 0.0001 0.9509
vn -0.8094 0.0008 0.5873
vn -1.0000 0.0013 -0.0000
vn -0.3182 -0.0278 0.9476
vn -0.8094 0.0008 -0.5873
vn -0.3094 0.0001 -0.9509
vn -0.8779 -0.4788 -0.0000
vn -0.0000 -1.0000 -0.0000
vn -0.7102 -0.4788 0.5160
vn -0.2713 -0.4788 0.8349
vn 0.2713 -0.4788 0.8349
vn 0.7102 -0.4788 0.5160
vn 0.2713 -0.4788 -0.8349
vn 0.8779 -0.4788 -0.0000
vn 0.7102 -0.4788 -0.5160
vn -0.2713 -0.4788 -0.8349
vn -0.7102 -0.4788 -0.5160
vn 0.8196 -0.0154 -0.5727
vn 0.3068 0.0093 0.9517
vn 0.8079 0.0480 0.5874
vn 0.3183 0.0278 -0.9476
vn 0.9977 0.0667 0.0071
vn 0.8153 0.0571 -0.5762
vn -0.3065 -0.0048 -0.9519
vn -0.8079 -0.0295 -0.5885
vn -0.9990 -0.0441 -0.0069
vn -0.8152 -0.0458 0.5774
vn -0.8224 -0.0904 -0.5617
vn -0.8130 -0.0026 -0.5822
vn -0.3184 0.0340 0.9474
vn 0.9998 0.0165 0.0065
vn -0.3141 -0.0288 -0.9489
vn -0.8182 0.0322 0.5741
vn 0.8140 0.0329 0.5800
vn 0.3182 -0.0369 -0.9473
vn -0.9998 0.0211 -0.0061
vn 0.3148 0.0345 0.9485
vn -0.1352 0.5391 0.8313
vn -0.3317 -0.0630 0.9413
vn 0.9944 -0.1056 0.0002
vn -0.3403 -0.1046 -0.9345
vn -0.8220 -0.0657 0.5656
vn 0.8082 -0.0884 0.5823
vn 0.2911 -0.1144 -0.9498
vn -0.9971 -0.0763 -0.0002
vn 0.3026 -0.0714 0.9504
vn 0.8037 -0.1153 -0.5838
vn 0.2524 0.9676 -0.0000
vn 0.9182 0.3961 0.0002
vn -0.1400 0.5280 -0.8376
vn -0.6008 0.5948 0.5341
vn 0.7781 0.4179 0.4690
vn 0.3906 0.4608 -0.7969
vn -0.7896 0.6137 -0.0002
vn 0.3910 0.4712 0.7906
vn 0.7801 0.4117 -0.4712
vn -0.6058 0.5875 -0.5366
vt 0.257610 0.343204
vt 0.257610 0.669206
vt 0.305903 0.665589
vt 0.306038 0.343205
vt 0.281824 0.343204
vt 0.335749 0.663354
vt 0.335968 0.343205
vt 0.321003 0.343205
vt 0.257610 0.343205
vt 0.281824 0.343205
vt 0.209317 0.672823
vt 0.209182 0.343205
vt 0.233396 0.343205
vt 0.179471 0.675058
vt 0.179252 0.343205
vt 0.194217 0.343205
vt 0.252392 0.742331
vt 0.205020 0.742395
vt 0.233396 0.343204
vt 0.189950 0.264684
vt 0.200648 0.245071
vt 0.257610 0.245071
vt 0.275212 0.245071
vt 0.292814 0.245071
vt 0.303693 0.245071
vt 0.314572 0.245071
vt 0.275212 0.245071
vt 0.257610 0.245071
vt 0.240008 0.245071
vt 0.222405 0.245071
vt 0.211527 0.245071
vt 0.240008 0.245071
vt 0.202872 0.264684
vt 0.236702 0.264684
vt 0.215794 0.264684
vt 0.278518 0.264684
vt 0.257610 0.264684
vt 0.312348 0.264684
vt 0.299426 0.264684
vt 0.278518 0.264684
vt 0.299426 0.264684
vt 0.325270 0.264684
vt 0.312348 0.264684
vt 0.236702 0.264684
vt 0.257610 0.264684
vt 0.202872 0.264684
vt 0.215794 0.264684
vt 0.330621 0.745308
vt 0.301802 0.746087
vt 0.300525 0.809994
vt 0.329345 0.803733
vt 0.300110 0.742991
vt 0.329974 0.744125
vt 0.254484 0.746159
vt 0.206713 0.745491
vt 0.176761 0.744344
vt 0.176115 0.743161
vt 0.207239 0.830256
vt 0.178405 0.836518
vt 0.170913 0.934573
vt 0.202926 0.925937
vt 0.253886 0.820126
vt 0.202874 0.925937
vt 0.254640 0.911964
vt 0.260322 0.986430
vt 0.235085 0.993013
vt 0.338450 0.889356
vt 0.338430 0.889356
vt 0.254704 0.911964
vt 0.170893 0.934573
vt 0.306418 0.897991
vt 0.306469 0.897991
vt 0.285560 0.979846
vt 0.219487 0.997082
vt 0.301157 0.975777
s 0
usemtl mushroom
f 1/1/1 2/2/1 4/3/1 3/4/1 72/5/1
f 3/4/2 4/3/2 6/6/2 5/7/2 73/8/2
f 5/7/3 6/6/3 8/6/3 7/7/3 74/7/3
f 7/7/4 8/6/4 10/3/4 9/4/4 75/8/4
f 9/4/5 10/3/5 12/2/5 11/9/5 76/10/5
f 11/9/6 12/2/6 14/11/6 13/12/6 77/13/6
f 13/12/7 14/11/7 16/14/7 15/15/7 78/16/7
f 15/15/8 16/14/8 18/14/8 17/15/8 79/15/8
f 14/11/9 12/2/9 36/17/9 37/18/9
f 17/15/10 18/14/10 20/11/10 19/12/10 80/16/10
f 19/12/11 20/11/11 2/2/11 1/1/11 81/19/11
f 111/20/12 92/20/12 29/21/12 89/21/12
f 21/22/13 82/23/13 22/24/13 83/25/13 23/26/13 84/26/13 24/26/13 85/25/13 25/24/13 86/27/13 26/28/13 87/29/13 27/30/13 88/31/13 28/21/13 89/21/13 29/21/13 90/31/13 30/30/13 91/32/13
f 110/33/14 93/20/14 28/21/14 88/31/14
f 109/34/15 94/35/15 27/30/15 87/29/15
f 108/36/16 95/37/16 26/28/16 86/27/16
f 107/38/17 96/39/17 25/24/17 85/25/17
f 106/40/18 98/41/18 22/24/18 82/23/18
f 105/42/19 97/42/19 24/26/19 84/26/19
f 104/43/20 100/42/20 23/26/20 83/25/20
f 103/44/21 99/45/21 21/22/21 91/32/21
f 102/46/22 101/47/22 30/30/22 90/31/22
f 33/48/23 32/49/23 42/50/23 43/51/23
f 12/2/24 10/3/24 35/52/24 36/17/24
f 10/3/25 8/6/25 34/53/25 35/52/25
f 4/3/26 2/2/26 31/54/26 32/49/26
f 8/6/27 6/6/27 33/48/27 34/53/27
f 6/6/28 4/3/28 32/49/28 33/48/28
f 2/2/29 20/11/29 40/55/29 31/54/29
f 20/11/30 18/14/30 39/56/30 40/55/30
f 18/14/31 16/14/31 38/57/31 39/56/31
f 16/14/32 14/11/32 37/18/32 38/57/32
f 50/58/33 49/59/33 59/60/33 60/61/33
f 40/55/34 39/56/34 49/59/34 50/58/34
f 37/18/35 36/17/35 46/62/35 47/58/35
f 34/53/36 33/48/36 43/51/36 44/51/36
f 31/54/37 40/55/37 50/58/37 41/62/37
f 38/57/38 37/18/38 47/58/38 48/59/38
f 35/52/39 34/53/39 44/51/39 45/50/39
f 32/49/40 31/54/40 41/62/40 42/50/40
f 39/56/41 38/57/41 48/59/41 49/59/41
f 36/17/42 35/52/42 45/50/42 46/62/42
f 57/63/43 56/64/43 66/65/43 67/66/43
f 47/58/44 46/62/44 56/64/44 57/63/44
f 44/51/45 43/51/45 53/67/45 54/68/45
f 41/62/46 50/58/46 60/61/46 51/69/46
f 48/59/47 47/58/47 57/63/47 71/70/47
f 45/50/48 44/51/48 54/68/48 55/71/48
f 42/50/49 41/62/49 51/69/49 52/72/49
f 49/59/50 48/59/50 71/70/50 59/60/50
f 46/62/51 45/50/51 55/71/51 56/64/51
f 43/51/52 42/50/52 52/72/52 53/67/52
f 62/73/53 61/65/53 70/66/53 69/74/53 68/74/53 67/66/53 66/65/53 65/73/53 64/75/53 63/75/53
f 54/68/54 53/67/54 63/75/54 64/75/54
f 51/69/55 60/61/55 70/66/55 61/65/55
f 58/70/56 57/63/56 67/66/56 68/74/56
f 55/71/57 54/68/57 64/75/57 65/73/57
f 52/72/58 51/69/58 61/65/58 62/73/58
f 59/60/59 58/70/59 68/74/59 69/74/59
f 56/64/60 55/71/60 65/73/60 66/65/60
f 53/67/61 52/72/61 62/73/61 63/75/61
f 60/61/62 59/60/62 69/74/62 70/66/62
f 92/20/22 102/46/22 90/31/22 29/21/22
f 17/15/22 80/16/22 102/46/22 92/20/22
f 80/16/22 19/12/22 101/47/22 102/46/22
f 101/47/21 103/44/21 91/32/21 30/30/21
f 19/12/21 81/19/21 103/44/21 101/47/21
f 81/19/21 1/1/21 99/45/21 103/44/21
f 98/41/20 104/43/20 83/25/20 22/24/20
f 3/4/20 73/8/20 104/43/20 98/41/20
f 73/8/20 5/7/20 100/42/20 104/43/20
f 100/42/19 105/42/19 84/26/19 23/26/19
f 5/7/19 74/7/19 105/42/19 100/42/19
f 74/7/19 7/7/19 97/42/19 105/42/19
f 99/45/18 106/40/18 82/23/18 21/22/18
f 1/1/18 72/5/18 106/40/18 99/45/18
f 72/5/18 3/4/18 98/41/18 106/40/18
f 97/42/17 107/38/17 85/25/17 24/26/17
f 7/7/17 75/8/17 107/38/17 97/42/17
f 75/8/17 9/4/17 96/39/17 107/38/17
f 96/39/16 108/36/16 86/27/16 25/24/16
f 9/4/16 76/10/16 108/36/16 96/39/16
f 76/10/16 11/9/16 95/37/16 108/36/16
f 95/37/15 109/34/15 87/29/15 26/28/15
f 11/9/15 77/13/15 109/34/15 95/37/15
f 77/13/15 13/12/15 94/35/15 109/34/15
f 94/35/14 110/33/14 88/31/14 27/30/14
f 13/12/14 78/16/14 110/33/14 94/35/14
f 78/16/14 15/15/14 93/20/14 110/33/14
f 93/20/12 111/20/12 89/21/12 28/21/12
f 15/15/12 79/15/12 111/20/12 93/20/12
f 79/15/12 17/15/12 92/20/12 111/20/12
o cap
v -0.074279 5.738309 -0.023888
v 0.691737 3.552290 -3.746306
v 2.781116 3.718173 -2.506398
v 0.057346 3.659075 3.684377
v -2.324846 3.801915 2.959462
v -3.727819 3.507033 0.576980
v -1.699692 3.879278 -3.306826
v 2.329214 3.734895 2.787707
v 1.968011 3.749513 -1.433579
v 1.110000 3.799493 2.232567
v -2.049778 3.734003 1.339700
v -1.757701 3.807974 -1.924078
v -0.074279 2.684656 -3.436091
v 1.511451 2.684656 -3.045244
v 2.733909 2.684656 -1.962240
v 3.313045 2.684656 -0.435184
v 3.116186 2.684656 1.186096
v 2.188430 2.684656 2.530183
v 0.742315 2.684656 3.289162
v -0.890873 2.684656 3.289162
v -2.336988 2.684656 2.530183
v -3.264744 2.684656 1.186096
v -3.461602 2.684656 -0.435184
v -2.882467 2.684656 -1.962240
v -1.660009 2.684656 -3.045244
v -0.074279 2.959470 -2.748130
v 1.191740 2.959470 -2.436085
v 2.167728 2.959470 -1.571434
v 2.630100 2.959470 -0.352259
v 2.472932 2.959470 0.942141
v 1.732228 2.959470 2.015237
v 0.577675 2.959470 2.621192
v -0.726233 2.959470 2.621192
v -1.880785 2.959470 2.015237
v -2.621490 2.959470 0.942141
v -2.778658 2.959470 -0.352259
v -2.316286 2.959470 -1.571434
v -1.340297 2.959470 -2.436085
v 0.718586 2.684656 -3.240667
v 2.122680 2.684656 -2.503742
v 3.023477 2.684656 -1.198712
v 3.214615 2.684656 0.375456
v 2.652308 2.684656 1.858139
v 1.465372 2.684656 2.909672
v -0.074279 2.684656 3.289162
v -1.613930 2.684656 2.909672
v -2.800866 2.684656 1.858139
v -3.363173 2.684656 0.375456
v -3.172035 2.684656 -1.198712
v -2.271238 2.684656 -2.503742
v -0.867144 2.684656 -3.240667
v -3.073628 3.111728 -2.082168
v 3.634796 3.771981 -0.293362
v 3.338006 3.821304 1.373561
v -3.472050 4.215647 -1.312493
v 1.496786 5.173160 -1.899816
v 2.411433 5.173755 0.277932
v -2.415531 5.173755 -0.911807
v 0.931736 5.165885 2.236768
v -0.532465 5.163612 -2.453117
v -1.690900 5.234444 1.800901
vn 0.0013 1.0000 -0.0014
vn 0.2039 0.8315 0.5167
vn 0.5311 0.8450 0.0619
vn -0.3677 0.8429 0.3929
vn -0.0812 0.8366 -0.5418
vn -0.4822 0.8627 -0.1524
vn 0.7303 0.2303 -0.6432
vn 0.8633 -0.1458 -0.4832
vn 0.5532 -0.0428 -0.8320
vn -0.9712 0.1411 0.1920
vn -0.9742 -0.0920 -0.2062
vn -0.8944 -0.3985 0.2033
vn -0.8101 -0.1654 -0.5624
vn -0.7067 -0.4321 -0.5602
vn -0.9681 0.1187 -0.2208
vn 0.1936 0.1233 -0.9733
vn -0.1735 -0.1971 -0.9649
vn -0.2080 0.0732 -0.9754
vn 0.0235 0.1959 0.9803
vn -0.2482 -0.1420 0.9583
vn -0.0000 -0.2325 0.9726
vn -0.5801 0.2699 0.7685
vn -0.7432 -0.1805 0.6442
vn -0.4446 -0.1211 0.8875
vn 0.5455 -0.2731 -0.7924
vn 0.2488 -0.4910 -0.8349
vn -0.3665 -0.8955 0.2526
vn 0.9311 0.0901 -0.3536
vn 0.9521 -0.2087 -0.2235
vn 0.6281 -0.0856 0.7734
vn -0.2233 -0.8816 -0.4159
vn 0.8973 -0.2010 0.3931
vn 0.8217 -0.0125 0.5698
vn 0.3610 -0.0296 0.9321
vn 0.3569 0.3004 0.8845
vn 0.3509 -0.9044 -0.2427
vn -0.8366 0.1943 0.5122
vn 0.3083 -0.8827 0.3546
vn -0.4626 -0.0191 -0.8864
vn -0.5716 0.1704 -0.8026
vn 0.8848 0.2494 0.3935
vn 0.9681 0.2254 -0.1095
vn 0.3528 0.8397 -0.4129
vn -0.4186 0.2788 -0.8643
vn 0.6210 0.2318 0.7488
vn -0.8643 0.4114 -0.2894
vn -0.8489 -0.1248 0.5136
vn 0.9721 -0.2071 0.1100
vn -0.3053 0.9286 -0.2107
vn -0.1724 0.9286 -0.3285
vn 0.3469 0.9286 0.1315
vn 0.2460 0.9286 0.2777
vn -0.0000 0.9286 -0.3710
vn 0.0888 0.9286 0.3602
vn -0.0888 0.9286 0.3602
vn -0.2460 0.9286 0.2777
vn 0.1724 0.9286 -0.3285
vn -0.3469 0.9286 0.1315
vn 0.3053 0.9286 -0.2107
vn -0.3683 0.9286 -0.0447
vn 0.3683 0.9286 -0.0447
vt 0.761601 0.982188
vt 0.822709 0.898987
vt 0.912591 0.900130
vt 0.663403 0.908952
vt 0.733769 0.898656
vt 0.619386 0.900130
vt 0.935046 0.688561
vt 0.932179 0.538339
vt 0.895051 0.538339
vt 0.539674 0.657872
vt 0.555845 0.538339
vt 0.561824 0.538339
vt 0.579412 0.600414
vt 0.591023 0.538339
vt 0.573434 0.538339
vt 0.808131 0.664450
vt 0.761601 0.538339
vt 0.713440 0.538339
vt 0.769596 0.679971
vt 0.711999 0.538339
vt 0.761601 0.538339
vt 0.624895 0.700733
vt 0.624157 0.538339
vt 0.668078 0.538339
vt 0.857923 0.538339
vt 0.809762 0.538339
vt 0.933729 0.298573
vt 0.887206 0.363256
vt 0.859473 0.298573
vt 0.896601 0.298573
vt 0.951318 0.298573
vt 0.968908 0.298573
vt 0.900595 0.298573
vt 0.835088 0.366292
vt 0.956950 0.298573
vt 0.928772 0.298573
vt 0.812754 0.298573
vt 0.856674 0.298573
vt 0.763151 0.298573
vt 0.643153 0.362314
vt 0.625708 0.298573
vt 0.597530 0.298573
vt 0.592573 0.298573
vt 0.660895 0.366807
vt 0.557395 0.298573
vt 0.574984 0.298573
vt 0.666829 0.298573
vt 0.629701 0.298573
vt 0.763151 0.298573
vt 0.714990 0.298573
vt 0.968874 0.703551
vt 0.986902 0.696382
vt 0.857032 0.900044
vt 0.662869 0.711978
vt 0.907596 0.690992
vt 0.555210 0.760869
vt 0.567803 0.538339
vt 0.595980 0.538339
vt 0.632302 0.173190
vt 0.650044 0.177683
vt 0.876355 0.174132
vt 0.824237 0.177168
vt 0.967357 0.538339
vt 0.949768 0.538339
vt 0.955400 0.538339
vt 0.961378 0.538339
vt 0.665279 0.538339
vt 0.628151 0.538339
vt 0.899045 0.538339
vt 0.927222 0.538339
vt 0.811203 0.538339
vt 0.855124 0.538339
vt 0.811312 0.298573
vt 0.962929 0.298573
vt 0.713549 0.298573
vt 0.669628 0.298573
vt 0.569353 0.298573
vt 0.563374 0.298573
vt 0.626965 0.483229
vt 0.686249 0.483229
vt 0.666829 0.332135
vt 0.629701 0.332135
vt 0.592573 0.332135
vt 0.917877 0.483229
vt 0.872884 0.483229
vt 0.900595 0.332137
vt 0.928772 0.332135
vt 0.956950 0.332135
vt 0.763151 0.483229
vt 0.763151 0.332135
vt 0.714990 0.332135
vt 0.802753 0.483229
vt 0.812754 0.332137
vt 0.856674 0.332137
vt 0.723550 0.483229
vt 0.713549 0.332137
vt 0.763151 0.332137
vt 0.653419 0.483229
vt 0.625708 0.332137
vt 0.669628 0.332137
vt 0.840053 0.483229
vt 0.859473 0.332135
vt 0.811312 0.332135
vt 0.608426 0.483229
vt 0.569353 0.332135
vt 0.597530 0.332135
vt 0.899338 0.483229
vt 0.933729 0.332135
vt 0.896601 0.332135
vt 0.598879 0.483229
vt 0.557395 0.332135
vt 0.563374 0.332135
vt 0.927423 0.483229
vt 0.968908 0.332135
vt 0.951318 0.332135
vt 0.574984 0.332135
vt 0.962929 0.332135
s 1
usemtl mushroom
f 112/76/63 170/77/64 168/78/65
f 112/76/63 172/79/66 170/77/64
f 112/76/63 171/80/67 169/81/68
f 114/82/69 126/83/70 151/84/71
f 117/85/72 134/86/73 159/87/74
f 163/88/75 135/89/76 160/90/77
f 113/91/78 124/92/79 162/93/80
f 115/94/81 131/95/82 156/96/83
f 116/97/84 132/98/85 157/99/86
f 113/91/78 125/100/87 150/101/88
f 126/102/70 120/103/89 125/104/87 151/105/71
f 120/103/89 126/102/70 152/106/90 127/107/91
f 129/108/92 121/109/93 128/110/94 154/111/95
f 130/112/96 121/109/93 129/108/92 155/113/97
f 121/109/93 130/112/96 156/114/83
f 122/115/98 132/116/85 158/117/99
f 135/118/76 123/119/100 134/120/73 160/121/77
f 136/122/101 123/119/100 135/118/76 161/123/102
f 124/124/79 123/119/100 136/122/101 162/125/80
f 168/78/65 165/126/103 164/127/104
f 167/128/105 171/80/67 112/76/63
f 168/78/65 167/128/105 112/76/63
f 169/81/68 172/79/66 112/76/63
f 115/94/81 170/77/64 172/79/66 116/97/84
f 171/80/67 113/91/78 118/129/106
f 170/77/64 115/94/81 119/130/107
f 172/79/66 117/85/72 116/97/84
f 166/131/108 169/81/68 171/80/67 118/129/106
f 165/126/103 168/78/65 170/77/64 119/130/107
f 133/132/109 158/133/99 116/97/84 117/85/72
f 122/134/98 123/135/100 120/136/89 121/137/93
f 113/91/78 171/80/67 167/128/105 114/82/69
f 117/85/72 166/131/108 163/88/75
f 163/88/75 166/131/108 118/129/106
f 127/138/91 152/139/90 114/82/69 164/127/104
f 128/140/94 153/141/110 164/127/104 165/126/103
f 136/142/101 161/143/102 163/88/75 118/129/106
f 129/144/92 154/145/95 165/126/103 119/130/107
f 130/146/96 155/147/97 119/130/107 115/94/81
f 120/103/89 123/119/100 124/124/79 150/148/88 125/104/87
f 121/109/93 120/103/89 127/107/91 153/149/110 128/110/94
f 131/150/82 121/109/93 156/114/83
f 122/115/98 121/109/93 131/150/82 157/151/86 132/116/85
f 133/152/109 122/115/98 158/117/99
f 123/119/100 122/115/98 133/152/109 159/153/74 134/120/73
f 148/154/111 149/155/112 136/156/101 161/157/102 135/158/76
f 141/159/113 142/160/114 129/161/92 154/162/95 128/163/94
f 149/155/112 137/164/115 124/165/79 162/166/80 136/156/101
f 142/160/114 143/167/116 130/168/96 155/169/97 129/161/92
f 143/167/116 144/170/117 131/171/82 156/172/83 130/168/96
f 144/170/117 145/173/118 132/174/85 157/175/86 131/171/82
f 137/164/115 138/176/119 125/177/87 150/178/88 124/165/79
f 145/173/118 146/179/120 133/180/109 158/181/99 132/174/85
f 138/176/119 139/182/121 126/183/70 151/184/71 125/177/87
f 146/179/120 147/185/122 134/186/73 159/187/74 133/180/109
f 139/182/121 140/188/123 127/189/91 152/190/90 126/183/70
f 147/185/122 148/154/111 135/158/76 160/191/77 134/186/73
f 140/188/123 141/159/113 128/163/94 153/192/110 127/189/91
f 131/95/82 115/94/81 116/97/84 157/99/86
f 113/91/78 150/101/88 124/92/79
f 136/142/101 118/129/106 113/91/78 162/93/80
f 115/94/81 156/96/83 130/146/96
f 119/130/107 155/147/97 129/144/92
f 134/86/73 117/85/72 163/88/75 160/90/77
f 165/126/103 154/145/95 128/140/94
f 163/88/75 161/143/102 135/89/76
f 164/127/104 153/141/110 127/138/91
f 125/100/87 113/91/78 114/82/69 151/84/71
f 114/82/69 152/139/90 126/83/70
f 117/85/72 159/87/74 133/132/109
f 166/131/108 117/85/72 172/79/66 169/81/68
f 116/97/84 158/133/99 132/98/85
f 164/127/104 114/82/69 167/128/105 168/78/65
