# Blender 3.6.3
# www.blender.org
mtllib rock_smooth.mtl
o rock
v 1.345348 -0.643423 1.346570
v -0.513867 -0.643423 2.178815
v -1.662953 -0.643423 0.000000
v -0.513867 -0.643423 -2.178815
v 0.240638 0.705114 1.903366
v 0.325473 0.664219 -2.022591
v 0.248822 1.053632 1.055013
v 0.805217 1.053636 0.000000
v 0.248822 1.053632 -1.055013
v -0.651436 1.053632 0.652028
v -0.955662 0.040324 -1.736614
v -1.494200 0.040317 -0.715473
v -1.345348 0.643423 -0.466888
v -1.051368 0.665105 -1.025712
v -0.738062 0.643423 -1.618411
v 1.345348 -0.643423 -0.180379
v 0.695471 -1.027601 -0.696102
v 0.540272 -0.643423 -1.706948
v 0.828743 0.156103 -1.863649
v 1.542681 0.156112 -0.509928
v -1.423283 -0.758045 0.000000
v -0.439811 -0.758038 -1.864817
v 0.695432 -1.027624 -0.696064
v 1.151464 -0.758038 1.152510
v -0.439811 -0.758038 1.864817
v -1.517632 -0.054625 0.616125
v -0.894317 -0.054617 1.798015
v -0.642463 0.643423 1.661204
v -0.777962 0.978836 0.778668
v -1.345348 0.643423 0.328407
v 1.542692 0.156159 -0.509878
v 1.113231 0.643423 -1.042343
v 1.113231 0.643423 1.042343
v 1.444939 -0.239909 0.924329
vn -0.1061 -0.9675 -0.2294
vn -0.3291 -0.9442 0.0116
vn -0.9351 -0.3544 -0.0000
vn -0.3509 -0.4377 -0.8278
vn 0.7811 -0.3672 0.5051
vn 0.2640 -0.9540 0.1421
vn 0.1869 -0.9774 -0.0986
vn 0.5504 -0.7829 -0.2903
vn 0.8326 -0.5342 -0.1464
vn -0.1196 -0.9661 0.2288
vn -0.3074 -0.4302 0.8488
vn 0.5028 -0.5775 -0.6432
vn 0.7411 -0.0339 -0.6705
vn 0.2533 0.5329 -0.8074
vn 0.2935 0.5592 0.7754
vn -0.4894 0.6093 0.6239
vn -0.7592 0.1288 0.6380
vn -0.9455 0.1093 0.3068
vn 0.7254 0.6207 -0.2975
vn 0.0563 0.9759 -0.2109
vn 0.3841 0.9221 0.0468
vn -0.5048 0.8233 0.2596
vn 0.2046 0.9581 0.2003
vn -0.2190 0.9723 0.0811
vn -0.4865 0.6422 -0.5923
vn -0.6405 0.6869 -0.3434
vn 0.7555 0.5594 0.3410
vn -0.9466 0.0884 -0.3099
vn -0.7718 0.1021 -0.6276
vn 0.9409 -0.0683 -0.3316
vn 0.9755 0.2024 -0.0866
vn -0.7902 0.5880 -0.1729
vn -0.8120 0.5722 0.1149
vn 0.9686 0.1027 0.2265
vt 0.835809 0.133998
vt 0.507812 0.133995
vt 0.507812 0.185590
vt 0.891037 0.185590
vt 0.270969 0.185590
vt 0.305102 0.133998
vt 0.630241 0.012648
vt 0.630248 0.012658
vt 0.539539 0.185590
vt 0.179816 0.133998
vt 0.124588 0.185590
vt 0.808042 0.185590
vt 0.835603 0.545484
vt 0.891037 0.764844
vt 0.124588 0.764844
vt 0.215629 0.764844
vt 0.191566 0.450632
vt 0.399444 0.450628
vt 0.691146 0.764844
vt 0.693375 0.949493
vt 0.507812 0.949495
vt 0.370855 0.915825
vt 0.322250 0.949493
vt 0.393130 0.949493
vt 0.792469 0.764844
vt 0.658355 0.895289
vt 0.324478 0.764844
vt 0.633655 0.493365
vt 0.813259 0.493368
vt 0.597502 0.545488
vt 0.597493 0.545509
vt 0.589932 0.764844
vt 0.450050 0.764844
vt 0.345235 0.367226
s 1
usemtl rock
f 22/1/1 21/2/2 3/3/3 4/4/4
f 1/5/5 24/6/6 23/7/7 17/8/8 16/9/9
f 25/10/10 24/6/6 1/5/5 2/11/11
f 23/7/7 22/1/1 4/4/4 18/12/12 17/8/8
f 19/13/13 18/12/12 4/4/4 6/14/14
f 2/11/11 1/5/5 5/15/15
f 2/11/11 5/15/15 28/16/16 27/17/17
f 3/3/3 2/11/11 27/17/17 26/18/18
f 32/19/19 6/14/14 9/20/20 8/21/21
f 29/22/22 28/16/16 5/15/15 7/23/23 10/24/24
f 6/14/14 15/25/25 14/26/26 9/20/20
f 5/15/15 33/27/27 32/19/19 8/21/21 7/23/23
f 4/4/4 3/3/3 12/28/28 11/29/29
f 20/30/30 19/13/13 6/14/14 32/19/19 31/31/31
f 7/23/23 8/21/21 9/20/20 10/24/24
f 14/26/26 13/32/32 30/33/33 29/22/22 10/24/24 9/20/20
f 11/29/29 12/28/28 13/32/32 14/26/26 15/25/25
f 4/4/4 11/29/29 15/25/25 6/14/14
f 16/9/9 17/8/8 18/12/12 19/13/13 20/30/30
f 1/5/5 34/34/34 33/27/27 5/15/15
f 21/2/2 22/1/1 23/7/7 24/6/6 25/10/10
f 21/2/2 25/10/10 2/11/11 3/3/3
f 26/18/18 27/17/17 28/16/16 29/22/22 30/33/33
f 3/3/3 26/18/18 30/33/33 13/32/32 12/28/28
f 31/31/31 32/19/19 33/27/27 34/34/34
f 1/5/5 16/9/9 20/30/30 31/31/31 34/34/34
